<svg version="1.1" id="Layer_1" xmlns="http://www.w3.org/2000/svg" xmlns:xlink="http://www.w3.org/1999/xlink" x="0px" y="0px"
	 width="100%" viewBox="0 0 500 500" enable-background="new 0 0 500 500" xml:space="preserve">
<path fill="#FFFFFF" opacity="1.000000" stroke="none" 
	d="
M1.243514,435.275085 
	C1.000000,316.645782 1.000000,198.291550 1.000000,79.468658 
	C2.792468,75.042465 2.761408,70.649345 4.244598,66.545906 
	C16.623098,32.299168 49.997826,8.303078 87.199394,8.403752 
	C194.697632,8.694663 302.197144,8.502083 409.696167,8.508680 
	C457.569336,8.511618 496.489594,47.479900 496.491882,95.406387 
	C496.496979,203.072067 496.678833,310.738220 496.392120,418.403137 
	C496.292908,455.665649 477.343994,481.477448 444.851624,498.188812 
	C442.592651,499.350708 440.071228,499.606232 437.364014,500.729279 
	C311.312439,501.000000 185.624878,501.000000 59.468658,501.000000 
	C41.616825,495.070862 27.690981,484.354248 16.670303,469.861633 
	C8.924682,459.675842 3.532151,448.321472 1.243514,435.275085 
z"/>
<path fill="#026342" opacity="1.000000" stroke="none" 
	d="
M204.418701,125.418495 
	C216.680313,113.143944 228.691925,101.119370 240.703751,89.095039 
	C247.526398,82.265289 248.462387,82.252899 255.129715,88.926949 
	C274.796478,108.613541 294.452057,128.311279 314.150970,147.965683 
	C315.378510,149.190445 316.273529,150.930298 318.720367,151.428284 
	C318.720367,147.321411 318.748352,143.392715 318.711426,139.464615 
	C318.682281,136.363754 320.099487,134.917892 323.260254,134.924744 
	C341.922638,134.965195 360.585175,134.976913 379.247467,134.920746 
	C383.568604,134.907730 383.941711,137.586792 383.936646,140.909134 
	C383.899994,164.903625 384.002136,188.898849 383.826874,212.892120 
	C383.800018,216.568924 384.949799,219.045120 387.512482,221.563889 
	C400.227539,234.061203 412.761658,246.742599 425.367523,259.351135 
	C427.030151,261.014130 428.942230,262.682373 428.874512,265.180603 
	C428.765411,269.206055 426.416046,271.040955 422.376770,271.019257 
	C411.379608,270.960236 400.376801,271.193817 389.387024,270.903320 
	C385.227234,270.793365 383.850922,271.551849 383.868164,276.178650 
	C384.051178,325.332977 383.886963,374.488525 384.023987,423.643219 
	C384.035919,427.927765 383.172333,429.126984 378.665405,429.118774 
	C291.685394,428.961151 204.705017,428.970428 117.724930,429.095215 
	C113.369064,429.101471 111.936829,428.277130 111.956207,423.533508 
	C112.157043,374.378815 112.024361,325.222809 112.180634,276.067810 
	C112.193703,271.957916 111.295670,270.748535 107.066467,270.889740 
	C96.746986,271.234344 86.408150,270.977844 76.077301,271.015900 
	C72.714531,271.028290 69.089073,271.445923 67.483047,267.601227 
	C65.893547,263.796143 68.608894,261.383850 70.988319,259.001648 
	C102.193748,227.760147 133.399002,196.518478 164.604492,165.277039 
	C177.792374,152.073990 190.980682,138.871384 204.418701,125.418495 
z"/>
<path fill="#FCFDFD" opacity="1.000000" stroke="none" 
	d="
M344.837402,344.834930 
	C344.826050,356.267212 342.944458,358.023956 332.125336,358.208160 
	C318.985840,358.431946 305.829437,357.418518 292.704529,358.832977 
	C282.220093,359.962830 272.661499,363.738708 263.893219,369.338348 
	C260.588043,371.449097 257.389435,372.049469 253.644241,372.260040 
	C243.517700,372.829407 234.260895,371.538269 225.264389,365.833679 
	C215.878601,359.882202 204.843674,358.091400 193.647049,358.157806 
	C183.153763,358.220062 172.659531,358.218292 162.166275,358.154205 
	C155.121078,358.111176 152.029373,355.116699 152.017990,348.162109 
	C151.968918,318.180359 151.967377,288.198364 152.019012,258.216614 
	C152.031113,251.183319 154.976852,248.162598 162.126892,248.259598 
	C165.624512,248.307037 166.853073,247.369110 166.540634,243.828369 
	C166.234344,240.357574 166.422653,236.837570 166.485657,233.340820 
	C166.648621,224.296600 170.637283,219.908554 179.672134,219.156021 
	C189.696594,218.321060 199.626663,219.101074 209.415283,221.494263 
	C222.179092,224.614838 234.060074,229.731506 244.367538,237.936508 
	C247.462479,240.400146 249.354004,239.674149 252.031464,237.669296 
	C270.346863,223.954773 291.112457,218.187485 313.832977,219.038513 
	C325.451050,219.473679 329.506836,223.774414 329.525726,235.484131 
	C329.527069,236.316956 329.518188,237.149887 329.527283,237.982605 
	C329.559967,240.978760 328.694641,244.404099 329.862427,246.862717 
	C331.335052,249.963074 335.233856,247.627655 338.010498,248.325241 
	C342.640808,249.488541 344.780731,252.086044 344.814392,257.911560 
	C344.887512,270.570129 344.837341,283.229462 344.837402,295.888458 
	C344.837494,312.045349 344.837402,328.202240 344.837402,344.834930 
z"/>
<path fill="#036342" opacity="1.000000" stroke="none" 
	d="
M178.046646,334.730164 
	C178.007660,301.419983 178.075943,268.587769 177.906799,235.756744 
	C177.887054,231.925339 178.879913,230.728119 182.720703,230.591553 
	C204.762589,229.807892 224.373642,236.046463 241.464340,250.100967 
	C243.973389,252.164291 244.928604,254.451691 244.910400,257.771912 
	C244.766083,284.103302 244.826630,310.435822 244.838150,336.767975 
	C244.838867,338.430725 244.846893,340.107025 245.051651,341.752106 
	C245.232315,343.203217 246.114304,344.177551 247.705856,344.230347 
	C249.256531,344.281769 250.368332,343.445618 250.658493,342.044678 
	C250.991226,340.437988 250.988815,338.744843 250.989914,337.089142 
	C251.007462,310.590332 251.051636,284.091278 250.935715,257.592987 
	C250.922226,254.508499 251.673569,252.371567 254.113800,250.338104 
	C271.580963,235.782532 291.662262,229.507355 314.262512,230.715652 
	C317.000885,230.862045 317.900391,231.664490 317.891907,234.504883 
	C317.794312,267.169830 317.791321,299.835266 317.894562,332.500153 
	C317.903900,335.452789 316.868530,335.961792 314.183014,336.088928 
	C291.161163,337.178802 269.327728,342.114899 250.595093,356.556671 
	C248.953857,357.821960 247.584290,358.283447 245.758591,356.869629 
	C226.182465,341.710327 203.359512,336.821960 179.278122,335.923767 
	C178.871414,335.908600 178.480988,335.456604 178.046646,334.730164 
z"/>
</svg>