<svg version="1.1" id="Layer_1" xmlns="http://www.w3.org/2000/svg" xmlns:xlink="http://www.w3.org/1999/xlink" x="0px" y="0px"
	 width="100%" viewBox="0 0 500 500" enable-background="new 0 0 500 500" xml:space="preserve">
<path fill="#016241" opacity="1.000000" stroke="none" 
	d="
M0.999998,435.000000 
	C1.000000,316.644043 1.000000,198.288055 1.381234,79.461472 
	C2.142866,78.492310 2.756039,78.041672 2.869931,77.488281 
	C6.617354,59.279793 15.912459,44.377205 29.540794,31.913696 
	C44.599205,18.142342 62.380760,10.221916 82.596535,10.160169 
	C192.896072,9.823273 303.197144,9.981802 413.497650,10.067977 
	C417.755127,10.071302 422.054138,10.853624 426.261566,11.653106 
	C444.844849,15.184241 460.159698,24.409750 472.884155,38.325932 
	C486.773926,53.516571 494.792664,71.386101 494.851776,91.813492 
	C495.166626,200.613571 495.010925,309.415070 494.959595,418.216034 
	C494.957550,422.502197 494.683777,426.840973 493.990936,431.065735 
	C488.655914,463.596649 470.032074,485.565033 440.105499,498.499847 
	C438.929779,499.008026 438.028931,500.152191 437.000000,501.000000 
	C311.310699,501.000000 185.621384,501.000000 59.474529,500.631958 
	C58.210972,499.775085 57.452011,499.173950 56.592159,498.813568 
	C28.611609,487.087219 10.313508,466.948212 2.922585,437.256744 
	C2.708858,436.398163 1.659649,435.747559 0.999998,435.000000 
M204.169983,125.669701 
	C160.133926,169.757019 116.097595,213.844070 72.063293,257.933136 
	C71.003983,258.993774 69.561714,259.904083 69.013725,261.189606 
	C68.160156,263.191986 66.905426,265.993500 67.686249,267.469452 
	C68.600571,269.197784 71.474258,270.747986 73.567627,270.843079 
	C81.881302,271.220795 90.222137,271.000946 98.552910,271.001984 
	C102.987129,271.002533 107.421356,271.002075 112.293442,271.002075 
	C112.293442,323.998535 112.293442,376.386841 112.293442,428.772644 
	C202.987686,428.772644 293.230682,428.772644 383.965942,428.772644 
	C383.965942,376.160309 383.965942,323.774872 383.965942,271.002106 
	C386.068207,271.002106 387.698914,271.002441 389.329651,271.002075 
	C400.492889,270.999573 411.660400,271.152100 422.815186,270.843933 
	C424.709686,270.791595 427.301544,269.166199 428.187164,267.522034 
	C428.956360,266.093994 428.063843,263.495056 427.340149,261.633453 
	C426.837952,260.341614 425.398193,259.400940 424.340057,258.340546 
	C412.453217,246.428757 400.683868,234.395248 388.589355,222.697998 
	C385.062225,219.286743 383.757416,215.822327 383.807983,210.956955 
	C384.050446,187.633286 383.902039,164.305695 383.933563,140.979538 
	C383.938019,137.703583 383.676514,134.915588 379.318176,134.926132 
	C360.657349,134.971268 341.996277,134.974625 323.335510,134.917892 
	C319.821777,134.907211 318.631622,136.661514 318.694916,139.889313 
	C318.768738,143.655167 318.712158,147.423584 318.712158,151.190872 
	C318.018036,151.736557 317.323944,152.282227 316.629822,152.827896 
	C315.792664,151.212708 315.290894,149.264923 314.068237,148.032028 
	C294.592804,128.393463 275.025146,108.846390 255.478531,89.278427 
	C248.388489,82.180641 247.621857,82.171158 240.701736,89.098648 
	C228.690979,101.122147 216.680450,113.145874 204.169983,125.669701 
z"/>
<path fill="#FEFEFE" opacity="1.000000" stroke="none" 
	d="
M204.419891,125.419601 
	C216.680450,113.145874 228.690979,101.122147 240.701736,89.098648 
	C247.621857,82.171158 248.388489,82.180641 255.478531,89.278427 
	C275.025146,108.846390 294.592804,128.393463 314.068237,148.032028 
	C315.290894,149.264923 315.792664,151.212708 316.629822,152.827896 
	C317.323944,152.282227 318.018036,151.736557 318.712158,151.190872 
	C318.712158,147.423584 318.768738,143.655167 318.694916,139.889313 
	C318.631622,136.661514 319.821777,134.907211 323.335510,134.917892 
	C341.996277,134.974625 360.657349,134.971268 379.318176,134.926132 
	C383.676514,134.915588 383.938019,137.703583 383.933563,140.979538 
	C383.902039,164.305695 384.050446,187.633286 383.807983,210.956955 
	C383.757416,215.822327 385.062225,219.286743 388.589355,222.697998 
	C400.683868,234.395248 412.453217,246.428757 424.340057,258.340546 
	C425.398193,259.400940 426.837952,260.341614 427.340149,261.633453 
	C428.063843,263.495056 428.956360,266.093994 428.187164,267.522034 
	C427.301544,269.166199 424.709686,270.791595 422.815186,270.843933 
	C411.660400,271.152100 400.492889,270.999573 389.329651,271.002075 
	C387.698914,271.002441 386.068207,271.002106 383.965942,271.002106 
	C383.965942,323.774872 383.965942,376.160309 383.965942,428.772644 
	C293.230682,428.772644 202.987686,428.772644 112.293442,428.772644 
	C112.293442,376.386841 112.293442,323.998535 112.293442,271.002075 
	C107.421356,271.002075 102.987129,271.002533 98.552910,271.001984 
	C90.222137,271.000946 81.881302,271.220795 73.567627,270.843079 
	C71.474258,270.747986 68.600571,269.197784 67.686249,267.469452 
	C66.905426,265.993500 68.160156,263.191986 69.013725,261.189606 
	C69.561714,259.904083 71.003983,258.993774 72.063293,257.933136 
	C116.097595,213.844070 160.133926,169.757019 204.419891,125.419601 
M344.836426,344.356720 
	C344.836426,316.206604 344.841431,288.056519 344.833557,259.906403 
	C344.830902,250.545578 342.643707,248.305191 333.508972,248.150604 
	C332.237091,248.129074 330.968109,247.935669 329.516815,247.805603 
	C329.516815,243.131348 329.536591,238.809479 329.512848,234.487839 
	C329.456268,224.192825 325.459900,219.677780 315.331543,219.122787 
	C292.450043,217.868958 271.384705,223.380066 252.884109,237.141632 
	C249.106567,239.951523 246.816055,239.751099 243.151443,237.070892 
	C224.421036,223.371948 203.262222,217.668320 180.168564,219.126328 
	C170.618881,219.729218 166.582291,224.193832 166.490952,233.844421 
	C166.447250,238.462097 166.483444,243.080505 166.483444,248.163879 
	C164.708694,248.163879 163.419510,248.133606 162.132111,248.168884 
	C154.995087,248.364426 152.031464,251.182083 152.019257,258.213989 
	C151.967148,288.196198 151.968933,318.178650 152.018051,348.160858 
	C152.029449,355.118683 155.117462,358.112000 162.165298,358.155914 
	C172.658691,358.221252 183.153122,358.222778 193.646545,358.159790 
	C204.843674,358.092590 215.879227,359.879974 225.265335,365.833893 
	C234.260910,371.540070 243.547882,373.172241 253.629532,372.077026 
	C257.089447,371.701141 260.734100,370.771271 263.764587,369.121399 
	C272.752655,364.228241 281.881775,359.573151 292.216278,359.017181 
	C305.496399,358.302704 318.820251,358.342072 332.126801,358.196716 
	C342.943451,358.078552 344.823944,356.267578 344.836426,344.356720 
z"/>
<path fill="#046443" opacity="1.000000" stroke="none" 
	d="
M344.836426,344.832336 
	C344.823944,356.267578 342.943451,358.078552 332.126801,358.196716 
	C318.820251,358.342072 305.496399,358.302704 292.216278,359.017181 
	C281.881775,359.573151 272.752655,364.228241 263.764587,369.121399 
	C260.734100,370.771271 257.089447,371.701141 253.629532,372.077026 
	C243.547882,373.172241 234.260910,371.540070 225.265335,365.833893 
	C215.879227,359.879974 204.843674,358.092590 193.646545,358.159790 
	C183.153122,358.222778 172.658691,358.221252 162.165298,358.155914 
	C155.117462,358.112000 152.029449,355.118683 152.018051,348.160858 
	C151.968933,318.178650 151.967148,288.196198 152.019257,258.213989 
	C152.031464,251.182083 154.995087,248.364426 162.132111,248.168884 
	C163.419510,248.133606 164.708694,248.163879 166.483444,248.163879 
	C166.483444,243.080505 166.447250,238.462097 166.490952,233.844421 
	C166.582291,224.193832 170.618881,219.729218 180.168564,219.126328 
	C203.262222,217.668320 224.421036,223.371948 243.151443,237.070892 
	C246.816055,239.751099 249.106567,239.951523 252.884109,237.141632 
	C271.384705,223.380066 292.450043,217.868958 315.331543,219.122787 
	C325.459900,219.677780 329.456268,224.192825 329.512848,234.487839 
	C329.536591,238.809479 329.516815,243.131348 329.516815,247.805603 
	C330.968109,247.935669 332.237091,248.129074 333.508972,248.150604 
	C342.643707,248.305191 344.830902,250.545578 344.833557,259.906403 
	C344.841431,288.056519 344.836426,316.206604 344.836426,344.832336 
M178.084335,335.206268 
	C178.648117,335.467407 179.203613,335.936798 179.776886,335.959625 
	C203.503876,336.905518 225.978439,341.734924 245.447952,356.455872 
	C246.586594,357.316803 249.619797,357.059570 250.899597,356.126709 
	C261.135071,348.666107 272.235565,343.004669 284.614441,340.413422 
	C295.448425,338.145599 306.459137,336.722076 317.517090,334.904999 
	C317.517090,300.657806 317.517090,265.920715 317.517090,230.678726 
	C293.677490,229.350830 272.412964,234.866058 254.103821,250.342255 
	C251.675919,252.394501 250.923889,254.523560 250.937073,257.601410 
	C251.050583,284.099091 251.034851,310.597534 250.953003,337.095459 
	C250.944611,339.813019 252.255371,344.132355 247.702484,344.039856 
	C243.549927,343.955475 244.893661,339.803711 244.884872,337.262848 
	C244.792679,310.598358 244.877960,283.933136 244.729065,257.269165 
	C244.717651,255.224106 243.890549,252.521942 242.449875,251.246902 
	C224.124863,235.028931 202.486984,229.166718 178.010696,230.777969 
	C178.010696,265.655182 178.010696,299.952240 178.084335,335.206268 
z"/>
<path fill="#FDFEFE" opacity="1.000000" stroke="none" 
	d="
M178.047516,334.727783 
	C178.010696,299.952240 178.010696,265.655182 178.010696,230.777969 
	C202.486984,229.166718 224.124863,235.028931 242.449875,251.246902 
	C243.890549,252.521942 244.717651,255.224106 244.729065,257.269165 
	C244.877960,283.933136 244.792679,310.598358 244.884872,337.262848 
	C244.893661,339.803711 243.549927,343.955475 247.702484,344.039856 
	C252.255371,344.132355 250.944611,339.813019 250.953003,337.095459 
	C251.034851,310.597534 251.050583,284.099091 250.937073,257.601410 
	C250.923889,254.523560 251.675919,252.394501 254.103821,250.342255 
	C272.412964,234.866058 293.677490,229.350830 317.517090,230.678726 
	C317.517090,265.920715 317.517090,300.657806 317.517090,334.904999 
	C306.459137,336.722076 295.448425,338.145599 284.614441,340.413422 
	C272.235565,343.004669 261.135071,348.666107 250.899597,356.126709 
	C249.619797,357.059570 246.586594,357.316803 245.447952,356.455872 
	C225.978439,341.734924 203.503876,336.905518 179.776886,335.959625 
	C179.203613,335.936798 178.648117,335.467407 178.047516,334.727783 
z"/>
</svg>