<svg aria-hidden="true" version="1.1" xmlns="http://www.w3.org/2000/svg" xmlns:xlink="http://www.w3.org/1999/xlink">
<defs>
<symbol id="logo-header" viewBox="0 0 500 500">
<path fill="#016241" opacity="1.000000" stroke="none" 
	d="
M1.326556,268.369507 
	C1.000000,264.638702 1.000000,261.277435 1.000000,257.458069 
	C2.993900,253.700027 5.637142,250.962738 8.349876,248.251373 
	C84.705544,171.934464 161.113220,95.669220 237.284332,19.168434 
	C247.524689,8.883768 253.352722,8.550735 263.728851,19.168253 
	C289.111237,45.141129 314.989685,70.629341 340.687195,96.293869 
	C341.836456,97.441635 342.767670,98.883080 344.844299,99.671700 
	C345.138794,96.585442 344.843475,93.637894 345.077667,90.730499 
	C345.599854,84.248642 348.490051,81.116066 354.828857,81.073517 
	C380.317474,80.902412 405.807922,80.879860 431.296265,81.085617 
	C437.796783,81.138092 439.956024,83.846039 439.980927,91.220360 
	C440.057434,113.877632 440.004242,136.535202 440.010101,159.192657 
	C440.012756,169.355194 440.158356,179.520996 439.939911,189.678680 
	C439.850311,193.846298 441.176849,196.916229 444.123108,199.833679 
	C460.222656,215.775543 476.207550,231.833542 492.227203,247.856262 
	C495.417633,251.047302 498.466736,254.334732 500.744659,258.715759 
	C501.000000,261.041656 501.000000,263.083344 501.000000,265.562500 
	C498.942352,271.477203 494.804993,273.225830 489.204102,273.187012 
	C475.708191,273.093567 462.210022,273.126923 448.712921,273.174072 
	C440.664886,273.202179 440.180634,273.654114 440.177734,281.639221 
	C440.154419,346.292816 440.168976,410.946411 440.164215,475.600006 
	C440.164032,478.432587 440.244324,481.268829 440.062683,484.096405 
	C439.738556,489.141724 438.042542,490.775269 432.887970,491.081390 
	C430.891479,491.199982 428.889984,491.163788 426.890472,491.163849 
	C309.247589,491.166626 191.604675,491.169006 73.961784,491.161316 
	C61.123989,491.160461 60.841400,490.875916 60.839134,477.945099 
	C60.827873,413.624756 60.835297,349.304443 60.833912,284.984100 
	C60.833881,283.651031 60.843121,282.317871 60.826321,280.984955 
	C60.736160,273.831940 60.179081,273.223297 53.150841,273.180908 
	C39.154106,273.096497 25.156853,273.239929 11.159911,273.106293 
	C7.316674,273.069611 3.874565,272.258514 1.326556,268.369507 
z"/>
<path fill="#FCFDFD" opacity="1.000000" stroke="none" 
	d="
M271.753601,213.762817 
	C290.806183,204.211014 310.663788,199.227768 331.551239,198.235321 
	C337.068085,197.973190 342.552399,198.546799 347.981201,199.345673 
	C356.601471,200.614212 361.715271,205.975586 362.281586,214.670532 
	C362.713837,221.306763 362.613342,227.991226 362.448975,234.646820 
	C362.371307,237.791031 363.105347,239.188278 366.548004,238.866302 
	C382.107178,237.411133 384.006958,244.526016 383.930908,256.773987 
	C383.685730,296.254791 383.843292,335.738037 383.837250,375.220367 
	C383.835480,386.770905 380.473938,390.164948 369.043518,390.172974 
	C354.883179,390.182892 340.719360,390.375397 326.563354,390.128021 
	C305.872650,389.766418 287.263184,396.107391 270.070374,407.119598 
	C267.116638,409.011444 264.223785,410.185913 260.747223,409.841644 
	C260.582245,409.825287 260.413483,409.828827 260.247803,409.841064 
	C245.277878,410.946136 231.476791,409.047180 218.068573,400.600128 
	C205.024979,392.382782 189.592880,389.871765 173.935486,390.125946 
	C159.612350,390.358459 145.282242,390.222473 130.955612,390.156891 
	C122.398239,390.117706 118.033638,385.850220 118.021523,377.273499 
	C117.962463,335.458954 117.964371,293.644257 118.019196,251.829712 
	C118.030739,243.030472 122.395668,238.921310 131.351913,238.824921 
	C137.993774,238.753433 137.993927,238.753433 137.994385,232.319397 
	C137.994766,227.155045 137.936142,221.989883 138.007080,216.826508 
	C138.151505,206.313263 143.888458,199.953491 154.338776,199.055481 
	C188.462936,196.123215 219.226532,205.285629 246.773773,225.365524 
	C249.657318,227.467453 251.088898,227.297333 253.826752,225.287216 
	C259.444702,221.162598 265.525116,217.667862 271.753601,213.762817 
z"/>
<path fill="#026342" opacity="1.000000" stroke="none" 
	d="
M153.836929,345.992310 
	C153.836945,303.664551 153.900757,261.834656 153.736923,220.005630 
	C153.720764,215.885010 155.009415,214.448547 158.949738,214.317993 
	C190.514908,213.272247 218.727280,222.037338 242.988373,242.651215 
	C245.232101,244.557632 245.890244,246.707123 245.883698,249.586823 
	C245.798553,287.083344 245.826462,324.580109 245.830032,362.076813 
	C245.830170,363.575745 245.752289,365.088196 245.920273,366.570587 
	C246.206558,369.097046 247.319168,371.170349 250.159332,371.278961 
	C253.218292,371.395935 253.950302,368.947632 254.362244,366.607635 
	C254.647552,364.986847 254.506302,363.285889 254.506546,361.620758 
	C254.512070,324.457367 254.550369,287.293823 254.441788,250.130753 
	C254.432236,246.865387 255.311279,244.608521 257.801483,242.435944 
	C276.112823,226.460281 297.650787,218.117676 321.483704,214.993896 
	C328.786743,214.036682 336.063385,213.717697 343.404266,214.591568 
	C346.082489,214.910400 346.894501,215.939880 346.889282,218.670044 
	C346.802032,264.499176 346.786896,310.328644 346.910675,356.157623 
	C346.919586,359.467896 345.731964,359.844025 342.904968,359.913971 
	C321.073456,360.454132 299.948029,364.598785 279.669098,372.807037 
	C270.328278,376.587891 261.949493,382.031555 254.031662,388.159149 
	C251.297363,390.275238 249.248474,390.297455 246.555954,388.206573 
	C220.856476,368.249908 190.820114,361.496552 159.178207,360.032959 
	C154.880798,359.834167 153.142227,358.938934 153.769836,354.479767 
	C154.137802,351.865326 153.836945,349.156677 153.836929,345.992310 
z"/>
</symbol>
<symbol id='default-avatar' viewBox="0 0 100 100" >
<path fill="#DBDBDB" opacity="1.000000" stroke="none" 
	d="
M1.240314,63.279907 
	C1.000000,55.312424 1.000000,47.624847 1.000000,39.468636 
	C3.220509,29.625082 7.501720,21.423698 14.465079,14.634415 
	C21.260525,8.008846 28.873777,2.996571 38.720093,1.240314 
	C46.687576,1.000000 54.375153,1.000000 62.531364,1.000000 
	C72.374916,3.220507 80.576294,7.501714 87.365570,14.465074 
	C93.991142,21.260521 99.003433,28.873766 100.759689,38.720093 
	C101.000000,46.687576 101.000000,54.375153 101.000000,62.531364 
	C99.034828,71.149536 95.636116,78.569687 89.950150,84.841057 
	C82.757355,92.774391 74.352097,98.653290 63.279221,100.759201 
	C56.312355,101.000000 49.624710,101.000000 42.468533,101.000000 
	C41.833332,100.864265 41.666668,100.728523 41.250000,100.796394 
	C40.555553,101.000000 40.111111,101.000000 39.333332,101.000000 
	C29.625076,98.779503 21.423697,94.498276 14.634409,87.534920 
	C8.008841,80.739471 2.996561,73.126221 1.240314,63.279907 
z"/>
<path fill="#FFFFFF" opacity="1.000000" stroke="none" 
	d="
M41.465164,67.761703 
	C27.180670,61.607246 23.498278,40.408710 37.945065,29.599941 
	C44.754894,24.504980 52.404278,23.735991 60.058048,27.255884 
	C67.274910,30.574848 72.017754,36.391060 72.918404,44.426704 
	C74.970161,62.732327 59.001629,74.681625 41.465164,67.761703 
z"/>
<path fill="#FEFEFE" opacity="1.000000" stroke="none" 
	d="
M46.469975,98.826370 
	C36.958714,97.010490 28.443449,94.160255 21.051466,88.193535 
	C17.845423,85.605667 18.162117,84.154930 20.778196,81.642136 
	C25.194275,77.400398 30.267988,75.021805 36.410198,75.017982 
	C46.234756,75.011856 56.060375,74.930374 65.883484,75.049889 
	C71.608917,75.119545 76.500969,77.510246 80.716179,81.293533 
	C83.473030,83.767906 83.811050,85.798767 80.424789,88.495689 
	C70.537079,96.370544 59.263809,99.245422 46.469975,98.826370 
z"/>
</symbol>
</defs>
</svg>